<mxfile host="65bd71144e">
    <diagram id="4pXa8wD9Zis8faFRkyPW" name="Page-1">
        <mxGraphModel dx="2681" dy="706" grid="1" gridSize="10" guides="1" tooltips="1" connect="1" arrows="1" fold="1" page="1" pageScale="1" pageWidth="850" pageHeight="1100" math="0" shadow="0">
            <root>
                <mxCell id="0"/>
                <mxCell id="1" parent="0"/>
                <mxCell id="33" value="" style="rounded=0;whiteSpace=wrap;html=1;" vertex="1" parent="1">
                    <mxGeometry x="-830" y="220" width="1360" height="860" as="geometry"/>
                </mxCell>
                <mxCell id="80" value="" style="rounded=0;whiteSpace=wrap;html=1;" vertex="1" parent="1">
                    <mxGeometry x="-810" y="250" width="1320" height="90" as="geometry"/>
                </mxCell>
                <mxCell id="82" value="" style="rounded=1;whiteSpace=wrap;html=1;" vertex="1" parent="1">
                    <mxGeometry x="-680" y="265" width="460" height="60" as="geometry"/>
                </mxCell>
                <mxCell id="83" value="Logo" style="ellipse;whiteSpace=wrap;html=1;aspect=fixed;" vertex="1" parent="1">
                    <mxGeometry x="-660" y="272.5" width="50" height="50" as="geometry"/>
                </mxCell>
                <mxCell id="84" value="" style="rounded=0;whiteSpace=wrap;html=1;" vertex="1" parent="1">
                    <mxGeometry x="-570" y="275" width="320" height="45" as="geometry"/>
                </mxCell>
                <mxCell id="85" value="location" style="rounded=0;whiteSpace=wrap;html=1;" vertex="1" parent="1">
                    <mxGeometry x="-550" y="282.5" width="120" height="30" as="geometry"/>
                </mxCell>
                <mxCell id="86" value="options" style="rounded=0;whiteSpace=wrap;html=1;" vertex="1" parent="1">
                    <mxGeometry x="-400" y="282.5" width="120" height="30" as="geometry"/>
                </mxCell>
                <mxCell id="89" value="" style="rounded=1;whiteSpace=wrap;html=1;" vertex="1" parent="1">
                    <mxGeometry x="-170" y="267.5" width="530" height="60" as="geometry"/>
                </mxCell>
                <mxCell id="90" value="&amp;nbsp; &amp;nbsp; &amp;nbsp; &amp;nbsp; text" style="rounded=0;whiteSpace=wrap;html=1;" vertex="1" parent="1">
                    <mxGeometry x="-150" y="275" width="100" height="42.5" as="geometry"/>
                </mxCell>
                <mxCell id="92" style="edgeStyle=none;html=1;exitX=0;exitY=0.5;exitDx=0;exitDy=0;entryX=0;entryY=0.5;entryDx=0;entryDy=0;" edge="1" parent="1" source="91" target="90">
                    <mxGeometry relative="1" as="geometry"/>
                </mxCell>
                <mxCell id="91" value="icon" style="ellipse;whiteSpace=wrap;html=1;aspect=fixed;" vertex="1" parent="1">
                    <mxGeometry x="-140" y="278.75" width="40" height="40" as="geometry"/>
                </mxCell>
                <mxCell id="93" value="&amp;nbsp; &amp;nbsp; &amp;nbsp; &amp;nbsp; text" style="rounded=0;whiteSpace=wrap;html=1;" vertex="1" parent="1">
                    <mxGeometry x="-40" y="277.5" width="100" height="42.5" as="geometry"/>
                </mxCell>
                <mxCell id="94" value="icon" style="ellipse;whiteSpace=wrap;html=1;aspect=fixed;" vertex="1" parent="1">
                    <mxGeometry x="-30" y="276.25" width="40" height="40" as="geometry"/>
                </mxCell>
                <mxCell id="95" value="&amp;nbsp; &amp;nbsp; &amp;nbsp; &amp;nbsp; text" style="rounded=0;whiteSpace=wrap;html=1;" vertex="1" parent="1">
                    <mxGeometry x="70" y="277.5" width="80" height="42.5" as="geometry"/>
                </mxCell>
                <mxCell id="96" value="icon" style="ellipse;whiteSpace=wrap;html=1;aspect=fixed;" vertex="1" parent="1">
                    <mxGeometry x="70" y="280" width="40" height="40" as="geometry"/>
                </mxCell>
                <mxCell id="97" value="&amp;nbsp; &amp;nbsp; &amp;nbsp; &amp;nbsp; text" style="rounded=0;whiteSpace=wrap;html=1;" vertex="1" parent="1">
                    <mxGeometry x="160" y="277.5" width="90" height="42.5" as="geometry"/>
                </mxCell>
                <mxCell id="98" value="icon" style="ellipse;whiteSpace=wrap;html=1;aspect=fixed;" vertex="1" parent="1">
                    <mxGeometry x="160" y="277.5" width="40" height="40" as="geometry"/>
                </mxCell>
                <mxCell id="99" value="&amp;nbsp; &amp;nbsp; &amp;nbsp; &amp;nbsp; text" style="rounded=0;whiteSpace=wrap;html=1;" vertex="1" parent="1">
                    <mxGeometry x="260" y="278.75" width="85" height="42.5" as="geometry"/>
                </mxCell>
                <mxCell id="100" value="icon" style="ellipse;whiteSpace=wrap;html=1;aspect=fixed;" vertex="1" parent="1">
                    <mxGeometry x="260" y="280" width="40" height="40" as="geometry"/>
                </mxCell>
                <mxCell id="101" value="" style="rounded=0;whiteSpace=wrap;html=1;" vertex="1" parent="1">
                    <mxGeometry x="-830" y="350" width="1360" height="280" as="geometry"/>
                </mxCell>
                <mxCell id="102" value="" style="rounded=1;whiteSpace=wrap;html=1;" vertex="1" parent="1">
                    <mxGeometry x="-660" y="380" width="1005" height="220" as="geometry"/>
                </mxCell>
                <mxCell id="103" value="card1" style="whiteSpace=wrap;html=1;aspect=fixed;" vertex="1" parent="1">
                    <mxGeometry x="-585" y="410" width="160" height="160" as="geometry"/>
                </mxCell>
                <mxCell id="108" value="card2" style="whiteSpace=wrap;html=1;aspect=fixed;" vertex="1" parent="1">
                    <mxGeometry x="-350" y="410" width="160" height="160" as="geometry"/>
                </mxCell>
                <mxCell id="109" value="card3" style="whiteSpace=wrap;html=1;aspect=fixed;" vertex="1" parent="1">
                    <mxGeometry x="-130" y="410" width="160" height="160" as="geometry"/>
                </mxCell>
                <mxCell id="110" value="card4" style="whiteSpace=wrap;html=1;aspect=fixed;" vertex="1" parent="1">
                    <mxGeometry x="80" y="410" width="160" height="160" as="geometry"/>
                </mxCell>
                <mxCell id="113" value="----&amp;gt;" style="ellipse;whiteSpace=wrap;html=1;aspect=fixed;" vertex="1" parent="1">
                    <mxGeometry x="220" y="460" width="60" height="60" as="geometry"/>
                </mxCell>
                <mxCell id="115" value="" style="rounded=0;whiteSpace=wrap;html=1;" vertex="1" parent="1">
                    <mxGeometry x="-830" y="630" width="1360" height="130" as="geometry"/>
                </mxCell>
                <mxCell id="116" value="" style="rounded=0;whiteSpace=wrap;html=1;" vertex="1" parent="1">
                    <mxGeometry x="-660" y="645" width="1010" height="85" as="geometry"/>
                </mxCell>
                <mxCell id="117" value="Restaurants" style="rounded=0;whiteSpace=wrap;html=1;" vertex="1" parent="1">
                    <mxGeometry x="-650" y="655" width="270" height="65" as="geometry"/>
                </mxCell>
                <mxCell id="118" value="" style="rounded=0;whiteSpace=wrap;html=1;" vertex="1" parent="1">
                    <mxGeometry x="-300" y="655" width="645" height="65" as="geometry"/>
                </mxCell>
                <mxCell id="120" value="&amp;lt;a&amp;gt;" style="rounded=0;whiteSpace=wrap;html=1;" vertex="1" parent="1">
                    <mxGeometry x="-290" y="662.5" width="80" height="50" as="geometry"/>
                </mxCell>
                <mxCell id="121" value="&amp;lt;a&amp;gt;" style="rounded=0;whiteSpace=wrap;html=1;" vertex="1" parent="1">
                    <mxGeometry x="-192.5" y="662.5" width="82.5" height="50" as="geometry"/>
                </mxCell>
                <mxCell id="126" value="&amp;lt;a&amp;gt;" style="rounded=0;whiteSpace=wrap;html=1;" vertex="1" parent="1">
                    <mxGeometry x="-91.25" y="662.5" width="82.5" height="50" as="geometry"/>
                </mxCell>
                <mxCell id="127" value="&amp;lt;a&amp;gt;" style="rounded=0;whiteSpace=wrap;html=1;" vertex="1" parent="1">
                    <mxGeometry x="10" y="662.5" width="82.5" height="50" as="geometry"/>
                </mxCell>
                <mxCell id="128" value="&amp;lt;a&amp;gt;" style="rounded=0;whiteSpace=wrap;html=1;" vertex="1" parent="1">
                    <mxGeometry x="110" y="662.5" width="82.5" height="50" as="geometry"/>
                </mxCell>
                <mxCell id="129" value="" style="rounded=0;whiteSpace=wrap;html=1;" vertex="1" parent="1">
                    <mxGeometry x="208.75" y="667.5" width="82.5" height="40" as="geometry"/>
                </mxCell>
                <mxCell id="132" value="" style="rounded=0;whiteSpace=wrap;html=1;" vertex="1" parent="1">
                    <mxGeometry x="200" y="662.5" width="140" height="50" as="geometry"/>
                </mxCell>
                <mxCell id="133" value="filter" style="rounded=0;whiteSpace=wrap;html=1;" vertex="1" parent="1">
                    <mxGeometry x="210" y="667.5" width="80" height="40" as="geometry"/>
                </mxCell>
                <mxCell id="134" value="icon" style="ellipse;whiteSpace=wrap;html=1;aspect=fixed;" vertex="1" parent="1">
                    <mxGeometry x="300" y="667.5" width="40" height="40" as="geometry"/>
                </mxCell>
            </root>
        </mxGraphModel>
    </diagram>
</mxfile>